<svg width="48" height="48" viewBox="0 0 48 48" fill="none" xmlns="http://www.w3.org/2000/svg">
<path d="M10.975 39.5613C16.553 39.5613 21.1559 35.3988 21.8548 30.0112H26.145C26.8441 35.399 31.4468 39.5613 37.025 39.5613C43.0864 39.5613 48 34.6476 48 28.5862C48 22.7058 43.3749 17.9061 37.5642 17.6248V17.6112H26.8946C27.5115 15.0054 29.8562 13.0602 32.6483 13.0602H36.8896V8.43878H32.6483C27.3012 8.43878 22.8751 12.4438 22.2044 17.611H10.4358V17.6246C4.62511 17.9059 0 22.7058 0 28.5862C0 34.6476 4.91364 39.5613 10.975 39.5613ZM40.1329 23.2122C41.248 23.2122 42.1516 24.1163 42.1516 25.2311C42.1516 26.3461 41.248 27.2502 40.1329 27.2502C39.0179 27.2502 38.1143 26.3461 38.1143 25.2311C38.1143 24.1165 39.0179 23.2122 40.1329 23.2122ZM40.1329 28.7309C41.248 28.7309 42.1516 29.6346 42.1516 30.7498C42.1516 31.8646 41.248 32.7687 40.1329 32.7687C39.0179 32.7687 38.1143 31.8646 38.1143 30.7498C38.1143 29.6344 39.0179 28.7309 40.1329 28.7309ZM33.8804 23.2122C34.9954 23.2122 35.8991 24.1163 35.8991 25.2311C35.8991 26.3461 34.9954 27.2502 33.8804 27.2502C32.7654 27.2502 31.8617 26.3461 31.8617 25.2311C31.8617 24.1165 32.7654 23.2122 33.8804 23.2122ZM33.8804 28.7309C34.9954 28.7309 35.8991 29.6346 35.8991 30.7498C35.8991 31.8646 34.9954 32.7687 33.8804 32.7687C32.7654 32.7687 31.8617 31.8646 31.8617 30.7498C31.8617 29.6344 32.7654 28.7309 33.8804 28.7309ZM5.81504 26.5912H9.11049V23.4664H12.1028V26.5912H15.0572V29.5831H12.1026V32.7082H9.11028V29.5831H5.81504V26.5912Z" fill="white"/>
</svg>
